<?xml version="1.0" encoding="UTF-8"?>
<svg version="1.1" xmlns="http://www.w3.org/2000/svg" width="512" height="512">
<path d="M0 0 C168.96 0 337.92 0 512 0 C512 168.96 512 337.92 512 512 C343.04 512 174.08 512 0 512 C0 343.04 0 174.08 0 0 Z " fill="#000000" transform="translate(0,0)"/>
<path d="M0 0 C10.51875 -0.0928125 10.51875 -0.0928125 21.25 -0.1875 C23.43786133 -0.21481201 25.62572266 -0.24212402 27.87988281 -0.27026367 C42.98101086 -0.38083351 58.21258001 0.44243126 69.875 11.3125 C79.32994386 21.59058015 79.55729394 34.38692779 79.30859375 47.62109375 C78.87006911 58.12930874 75.47693745 66.52306255 68 74 C55.29703023 84.91224275 38.28605617 83.49323136 22.6875 83.25 C15.200625 83.1675 7.71375 83.085 0 83 C0 55.61 0 28.22 0 0 Z " fill="#FAFAFA" transform="translate(246,212)"/>
<path d="M0 0 C1.12039673 0.00737183 1.12039673 0.00737183 2.26342773 0.01489258 C12.32385308 0.22755198 20.87429031 3.03974745 28.41015625 9.875 C36.16479471 18.10596761 35.6875 25.86996035 35.6875 37.3125 C20.1775 37.3125 4.6675 37.3125 -11.3125 37.3125 C-9.70552366 45.43036052 -9.70552366 45.43036052 -4.3125 50.3125 C0.61670214 51.08268783 6.46542935 51.21517358 10.6875 48.3125 C11.3475 46.3325 12.0075 44.3525 12.6875 42.3125 C20.2775 42.3125 27.8675 42.3125 35.6875 42.3125 C34.60938774 52.01551031 33.6336044 55.14002708 26.515625 60.95703125 C18.8122068 66.66875372 10.64112385 66.53616193 1.4375 66.625 C0.45136719 66.65400391 -0.53476562 66.68300781 -1.55078125 66.71289062 C-10.93998904 66.79329886 -18.88813178 64.18293069 -26.3125 58.3125 C-30.49770354 54.02996614 -32.6241556 49.94791981 -34.3125 44.3125 C-34.49683594 43.71953125 -34.68117188 43.1265625 -34.87109375 42.515625 C-36.70805883 33.34705595 -36.14968246 23.41263394 -31.3125 15.3125 C-23.91543602 4.46602794 -12.90189605 -0.10062516 0 0 Z " fill="#FBFBFB" transform="translate(370.3125,229.6875)"/>
<path d="M0 0 C26.4 0 52.8 0 80 0 C80 6.6 80 13.2 80 20 C71.09 20 62.18 20 53 20 C53 40.46 53 60.92 53 82 C44.42 82 35.84 82 27 82 C27 61.87 27 41.74 27 21 C18.09 21 9.18 21 0 21 C0 14.07 0 7.14 0 0 Z " fill="#FEFEFE" transform="translate(34,213)"/>
<path d="M0 0 C8.91 0 17.82 0 27 0 C27 20.46 27 40.92 27 62 C40.86 62 54.72 62 69 62 C69 68.93 69 75.86 69 83 C46.23 83 23.46 83 0 83 C0 55.61 0 28.22 0 0 Z " fill="#FAFAFA" transform="translate(126,212)"/>
<path d="M0 0 C8.58 0 17.16 0 26 0 C33.43521001 24.30741734 33.43521001 24.30741734 36.2734375 34.6484375 C36.77951872 36.93513744 36.77951872 36.93513744 38 38 C38.20753906 37.18402344 38.41507812 36.36804688 38.62890625 35.52734375 C41.73735624 23.57476826 45.36794636 11.80417433 49 0 C56.92 0 64.84 0 73 0 C65.36809099 21.15216466 57.32614676 42.11182895 49 63 C40.75 63 32.5 63 24 63 C19.94526889 53.43739716 16.1587673 43.78622967 12.43383789 34.09130859 C11.43889983 31.50364071 10.43931333 28.91780058 9.43945312 26.33203125 C8.79138358 24.64854645 8.14358797 22.96495617 7.49609375 21.28125 C7.05842934 20.15100403 7.05842934 20.15100403 6.61192322 18.9979248 C4.20443544 12.71210767 2.13552332 6.40656997 0 0 Z " fill="#FCFCFC" transform="translate(408,232)"/>
<path d="M0 0 C15.67123288 0 15.67123288 0 21 4 C25.9520535 9.11179716 25.2437377 15.6821366 25.3125 22.375 C25.34150391 23.30828125 25.37050781 24.2415625 25.40039062 25.203125 C25.45358171 30.98049481 25.05637554 34.546732 21 39 C15 43 15 43 0 43 C0 28.81 0 14.62 0 0 Z " fill="#020202" transform="translate(273,232)"/>
<path d="M0 0 C8.25 0 16.5 0 25 0 C26.36450143 19.3304369 23.63036439 29.92790145 13 46 C8.71 46 4.42 46 0 46 C2.33937611 38.33204498 5.54768806 31.22862726 9 24 C6.03 24 3.06 24 0 24 C0 16.08 0 8.16 0 0 Z " fill="#FCFCFC" transform="translate(205,271)"/>
<path d="M0 0 C8.25 0 16.5 0 25 0 C25 7.92 25 15.84 25 24 C16.75 24 8.5 24 0 24 C0 16.08 0 8.16 0 0 Z " fill="#FBFBFB" transform="translate(205,232)"/>
<path d="M0 0 C3.1875 2.1875 3.1875 2.1875 5 5 C5 6.65 5 8.3 5 10 C-2.59 10 -10.18 10 -18 10 C-17.06712334 5.33561669 -16.69549441 3.76669065 -13.01171875 0.95703125 C-8.83610854 -1.02942409 -4.46663133 -0.84852419 0 0 Z " fill="#040404" transform="translate(377,246)"/>
</svg>
