<svg xmlns="http://www.w3.org/2000/svg" xmlns:xlink="http://www.w3.org/1999/xlink" width="512" zoomAndPan="magnify" viewBox="0 0 384 383.999986" height="512" preserveAspectRatio="xMidYMid meet" version="1.0"><defs><g/></defs><rect x="-38.4" width="460.8" fill="#ffffff" y="-38.399999" height="460.799983" fill-opacity="1"/><rect x="-38.4" width="460.8" fill="#000000" y="-38.399999" height="460.799983" fill-opacity="1"/><g fill="#ffffff" fill-opacity="1"><g transform="translate(21.675002, 218.624983)"><g><path d="M 18.65625 -45.421875 L 40.21875 -45.421875 L 40.21875 0 L 18.65625 0 Z M 2.4375 -62.203125 L 56.4375 -62.203125 L 56.4375 -48.65625 L 2.4375 -48.65625 Z M 2.4375 -62.203125 "/></g></g></g><g fill="#ffffff" fill-opacity="1"><g transform="translate(80.54281, 218.624983)"><g><path d="M 5.484375 0 L 5.484375 -62.203125 L 26.203125 -62.203125 L 26.203125 0 Z M 29.484375 0 L 29.484375 -12.421875 L 39.75 -12.421875 L 39.75 -20.296875 L 58.546875 -20.296875 L 58.546875 0 Z M 29.484375 0 "/></g></g></g><g fill="#ffffff" fill-opacity="1"><g transform="translate(139.926186, 218.624983)"><g><path d="M 6.890625 -49.78125 L 27.609375 -49.78125 L 27.609375 -35.296875 L 6.890625 -35.296875 Z M 6.890625 -14.484375 L 27.609375 -14.484375 L 27.609375 0 L 19.3125 12.421875 L 6.890625 12.421875 L 12.65625 0 L 6.890625 0 Z M 6.890625 -14.484375 "/></g></g></g><g fill="#ffffff" fill-opacity="1"><g transform="translate(174.421972, 218.624983)"><g><path d="M 29.484375 0 L 29.484375 -12.421875 L 44.859375 -12.421875 L 44.859375 -49.78125 L 29.484375 -49.78125 L 29.484375 -62.203125 L 53.15625 -62.203125 L 65.625 -49.78125 L 65.625 -12.421875 L 53.15625 0 Z M 5.484375 -62.203125 L 26.203125 -62.203125 L 26.203125 0 L 5.484375 0 Z M 5.484375 -62.203125 "/></g></g></g><g fill="#ffffff" fill-opacity="1"><g transform="translate(244.069714, 218.624983)"><g><path d="M 25.171875 0 L 16.875 0 L 4.453125 -12.421875 L 4.453125 -37.359375 L 16.875 -49.78125 L 25.171875 -49.78125 Z M 28.453125 -19.96875 L 28.453125 -28.640625 L 39.375 -28.640625 L 39.375 -37.359375 L 28.453125 -37.359375 L 28.453125 -49.78125 L 46.03125 -49.78125 L 58.453125 -37.359375 L 58.453125 -19.96875 Z M 28.453125 0 L 28.453125 -11.625 L 56.296875 -11.625 L 56.296875 -6.234375 L 50.109375 0 Z M 28.453125 0 "/></g></g></g><g fill="#ffffff" fill-opacity="1"><g transform="translate(306.452735, 218.624983)"><g><path d="M -0.65625 -49.78125 L 19.921875 -49.78125 L 37.640625 0 L 17.953125 0 Z M 39.75 -2.765625 L 30.46875 -29.109375 L 37.171875 -49.78125 L 56.53125 -49.78125 Z M 39.75 -2.765625 "/></g></g></g></svg>